<svg width="32" height="32" viewBox="0 0 32 32" fill="none" xmlns="http://www.w3.org/2000/svg">
<g id="account_circle" clip-path="url(#clip0_727_30526)">
<path id="Vector" d="M15.9998 2.66602C8.63984 2.66602 2.6665 8.63935 2.6665 15.9993C2.6665 23.3594 8.63984 29.3327 15.9998 29.3327C23.3598 29.3327 29.3332 23.3594 29.3332 15.9993C29.3332 8.63935 23.3598 2.66602 15.9998 2.66602ZM15.9998 6.66602C18.2132 6.66602 19.9998 8.45268 19.9998 10.666C19.9998 12.8793 18.2132 14.666 15.9998 14.666C13.7865 14.666 11.9998 12.8793 11.9998 10.666C11.9998 8.45268 13.7865 6.66602 15.9998 6.66602ZM15.9998 25.5993C12.6665 25.5993 9.71984 23.8927 7.99984 21.306C8.03984 18.6527 13.3332 17.1993 15.9998 17.1993C18.6532 17.1993 23.9598 18.6527 23.9998 21.306C22.2798 23.8927 19.3332 25.5993 15.9998 25.5993Z" fill="#666666"/>
</g>
<defs>
<clipPath id="clip0_727_30526">
<rect width="32" height="32" fill="white"/>
</clipPath>
</defs>
</svg>
