<svg width="21" height="18" viewBox="0 0 21 18" fill="none" xmlns="http://www.w3.org/2000/svg">
<g id="Group">
<g id="Group_2">
<path id="Vector" d="M7.5 11C8.05228 11 8.5 10.5523 8.5 10C8.5 9.44772 8.05228 9 7.5 9C6.94772 9 6.5 9.44772 6.5 10C6.5 10.5523 6.94772 11 7.5 11Z" fill="#E9E9E9"/>
<path id="Vector_2" d="M13.5 11C14.0523 11 14.5 10.5523 14.5 10C14.5 9.44772 14.0523 9 13.5 9C12.9477 9 12.5 9.44772 12.5 10C12.5 10.5523 12.9477 11 13.5 11Z" fill="#E9E9E9"/>
<path id="Vector_3" d="M16.5 8.03C16.02 5.18 13.54 3 10.55 3C7.51997 3 4.25997 5.51 4.51997 9.45C6.98997 8.44 8.84997 6.24 9.37997 3.56C10.69 6.19 13.38 8 16.5 8.03Z" fill="#E9E9E9"/>
<path id="Vector_4" d="M19.49 9C19.38 3.63 15.18 0 10.5 0C5.89 0 1.65 3.53 1.51 9H0.5V15H3.5V9.19C3.5 5.36 6.45 2.01 10.28 1.9C14.24 1.78 17.5 4.96 17.5 8.9V16H9.5V18H19.5V15H20.5V9H19.49Z" fill="#E9E9E9"/>
</g>
</g>
</svg>
