<svg width="20" height="21" viewBox="0 0 20 21" fill="none" xmlns="http://www.w3.org/2000/svg">
<g id="visibility" clip-path="url(#clip0_894_11312)">
<path id="Vector" d="M10.0002 3.73438C5.8335 3.73438 2.27516 6.32604 0.833496 9.98438C2.27516 13.6427 5.8335 16.2344 10.0002 16.2344C14.1668 16.2344 17.7252 13.6427 19.1668 9.98438C17.7252 6.32604 14.1668 3.73438 10.0002 3.73438ZM10.0002 14.151C7.70016 14.151 5.8335 12.2844 5.8335 9.98438C5.8335 7.68437 7.70016 5.81771 10.0002 5.81771C12.3002 5.81771 14.1668 7.68437 14.1668 9.98438C14.1668 12.2844 12.3002 14.151 10.0002 14.151ZM10.0002 7.48438C8.61683 7.48438 7.50016 8.60104 7.50016 9.98438C7.50016 11.3677 8.61683 12.4844 10.0002 12.4844C11.3835 12.4844 12.5002 11.3677 12.5002 9.98438C12.5002 8.60104 11.3835 7.48438 10.0002 7.48438Z" fill="#909090"/>
</g>
<defs>
<clipPath id="clip0_894_11312">
<rect width="20" height="20" fill="white" transform="translate(0 0.400391)"/>
</clipPath>
</defs>
</svg>
