<svg width="73" height="20" viewBox="0 0 73 20" fill="none" xmlns="http://www.w3.org/2000/svg">
<g id="ICON">
<path d="M0 19.6685V0.331491H4.46942V19.6685H0Z" fill="#333333"/>
<path d="M19.2146 20C17.7248 20 16.3362 19.7606 15.0487 19.2818C13.7796 18.7845 12.676 18.0847 11.738 17.1823C10.8 16.2799 10.0642 15.221 9.53086 14.0055C9.01587 12.7901 8.75837 11.4549 8.75837 10C8.75837 8.54512 9.01587 7.20994 9.53086 5.99447C10.0642 4.779 10.8 3.72007 11.738 2.81768C12.6944 1.91528 13.8072 1.22468 15.0763 0.745855C16.3454 0.248618 17.734 0 19.2422 0C20.9159 0 22.4241 0.29466 23.7668 0.883979C25.1279 1.45488 26.2682 2.30203 27.1878 3.42542L24.3186 6.07735C23.6564 5.32228 22.9207 4.76059 22.1115 4.39226C21.3022 4.00552 20.4193 3.81216 19.4629 3.81216C18.5617 3.81216 17.734 3.95949 16.9799 4.25414C16.2258 4.5488 15.5729 4.97238 15.0211 5.52486C14.4693 6.07735 14.0371 6.73112 13.7244 7.48619C13.4301 8.24125 13.283 9.07919 13.283 10C13.283 10.9208 13.4301 11.7587 13.7244 12.5138C14.0371 13.2689 14.4693 13.9227 15.0211 14.4751C15.5729 15.0276 16.2258 15.4512 16.9799 15.7459C17.734 16.0405 18.5617 16.1878 19.4629 16.1878C20.4193 16.1878 21.3022 16.0037 22.1115 15.6354C22.9207 15.2486 23.6564 14.6685 24.3186 13.895L27.1878 16.547C26.2682 17.6704 25.1279 18.5267 23.7668 19.116C22.4241 19.7053 20.9067 20 19.2146 20Z" fill="#333333"/>
<path d="M40.1018 20C38.5752 20 37.159 19.7514 35.8531 19.2541C34.5656 18.7569 33.4437 18.0571 32.4872 17.1547C31.5492 16.2523 30.8135 15.1934 30.2801 13.9779C29.7651 12.7624 29.5076 11.4365 29.5076 10C29.5076 8.56353 29.7651 7.23757 30.2801 6.0221C30.8135 4.80663 31.5584 3.7477 32.5148 2.8453C33.4712 1.94291 34.5932 1.24309 35.8807 0.745855C37.1682 0.248618 38.566 0 40.0742 0C41.6008 0 42.9986 0.248618 44.2677 0.745855C45.5552 1.24309 46.668 1.94291 47.606 2.8453C48.5624 3.7477 49.3073 4.80663 49.8407 6.0221C50.3741 7.21915 50.6408 8.54512 50.6408 10C50.6408 11.4365 50.3741 12.7716 49.8407 14.0055C49.3073 15.221 48.5624 16.2799 47.606 17.1823C46.668 18.0663 45.5552 18.7569 44.2677 19.2541C42.9986 19.7514 41.61 20 40.1018 20ZM40.0742 16.1878C40.9387 16.1878 41.7296 16.0405 42.4469 15.7459C43.1826 15.4512 43.8263 15.0276 44.3781 14.4751C44.9299 13.9227 45.3529 13.2689 45.6472 12.5138C45.9599 11.7587 46.1162 10.9208 46.1162 10C46.1162 9.07919 45.9599 8.24125 45.6472 7.48619C45.3529 6.73112 44.9299 6.07735 44.3781 5.52486C43.8447 4.97238 43.2102 4.5488 42.4745 4.25414C41.7388 3.95949 40.9387 3.81216 40.0742 3.81216C39.2098 3.81216 38.4097 3.95949 37.674 4.25414C36.9567 4.5488 36.3221 4.97238 35.7703 5.52486C35.2185 6.07735 34.7863 6.73112 34.4736 7.48619C34.1794 8.24125 34.0322 9.07919 34.0322 10C34.0322 10.9024 34.1794 11.7403 34.4736 12.5138C34.7863 13.2689 35.2094 13.9227 35.7427 14.4751C36.2945 15.0276 36.9383 15.4512 37.674 15.7459C38.4097 16.0405 39.2098 16.1878 40.0742 16.1878Z" fill="#333333"/>
<path d="M54.9194 19.6685V0.331491H58.6163L70.0106 14.2541H68.2173V0.331491H72.6316V19.6685H68.9622L57.5404 5.74586H59.3337V19.6685H54.9194Z" fill="#333333"/>
</g>
</svg>
