<svg width="16" height="16" viewBox="0 0 16 16" fill="none" xmlns="http://www.w3.org/2000/svg">
<g id="Group">
<g id="Group_2">
<path id="Vector" d="M7.16667 5.06706V9.23372L10.7083 11.3337L11.35 10.2671L8.41667 8.52539V5.06706H7.16667ZM15.5 6.73372V0.900391L13.3 3.10039C11.95 1.74206 10.075 0.900391 8 0.900391C3.85833 0.900391 0.5 4.25872 0.5 8.40039C0.5 12.5421 3.85833 15.9004 8 15.9004C12.1417 15.9004 15.5 12.5421 15.5 8.40039H13.8333C13.8333 11.6171 11.2167 14.2337 8 14.2337C4.78333 14.2337 2.16667 11.6171 2.16667 8.40039C2.16667 5.18372 4.78333 2.56706 8 2.56706C9.60833 2.56706 11.0667 3.22539 12.125 4.27539L9.66667 6.73372H15.5Z" fill="#909090"/>
</g>
</g>
</svg>
