<svg width="148" height="48" viewBox="0 0 148 48" fill="none" xmlns="http://www.w3.org/2000/svg">
<g id="_&#229;&#156;&#150;&#229;&#177;&#164;_2" clip-path="url(#clip0_2195_42181)">
<g id="Group">
<path id="Vector" d="M23.8986 45.6229V45.1377C23.4329 45.6229 22.9768 46.0983 22.5208 46.5737C22.4917 46.5543 22.4626 46.5349 22.4335 46.5155C22.3656 46.4864 22.2976 46.467 22.2297 46.4379C21.7155 46.9619 21.2012 47.4761 20.6967 47.9904H19.3965C20.1242 47.2626 20.8616 46.5252 21.6087 45.7878C21.5893 45.7684 21.5699 45.7393 21.5505 45.7199C21.502 45.652 21.4438 45.5841 21.3953 45.5258C22.2491 44.672 23.103 43.8278 23.9374 42.9837V42.3336C31.9811 34.2899 39.9859 26.2851 47.9908 18.2802V18.7557C51.0472 15.6993 54.123 12.6235 57.1988 9.54767C57.1503 9.49915 57.0532 9.39242 56.9853 9.3148C60.0708 6.22929 63.1466 3.15349 66.2904 0.00976562H69.4244C65.8343 3.59982 62.1958 7.23839 58.5475 10.8867L58.596 10.9546C58.499 10.8673 58.4019 10.7702 58.3243 10.7023C54.8895 14.1371 51.4547 17.5816 47.9617 21.0649V21.5501C39.918 29.5938 31.9229 37.5889 23.8889 45.6229H23.8986Z" fill="#0936D8"/>
<path id="Vector_2" d="M61.2252 13.6134C61.1476 13.5358 61.0603 13.4582 60.9924 13.3902C57.3926 16.99 53.8026 20.5801 50.2125 24.1701L50.164 24.1313C50.067 24.1313 49.9699 24.141 49.902 24.1507C49.2519 24.8008 48.6115 25.4412 47.9323 26.1301V26.9257C40.8881 33.97 33.8826 40.9754 26.8674 47.9906H23.8887V47.7092C31.9226 39.6753 39.9275 31.6704 47.9517 23.6462V24.6261C48.107 24.4515 48.2331 24.306 48.3593 24.1604C48.3399 24.1604 48.2622 24.1313 48.1652 24.1022C52.0949 20.1725 56.0051 16.2623 59.9445 12.3229C59.8183 12.1871 59.7213 12.061 59.6437 11.9736C63.6315 7.98576 67.6097 4.00759 71.5685 0.0488281V3.27017C68.124 6.71469 64.6892 10.1495 61.2349 13.6037L61.2252 13.6134Z" fill="#0936D8"/>
<path id="Vector_3" d="M54.6174 6.90893C54.5204 6.8022 54.4234 6.69547 54.3457 6.61785C56.4998 4.46381 58.6538 2.30978 60.8855 0.078125H64.1068C61.4094 2.77552 58.6829 5.50202 55.9467 8.23822C55.8691 8.1703 55.7624 8.07327 55.6653 7.98595C53.1329 10.5184 50.6004 13.0508 48.0195 15.6318V16.1655C39.9855 24.1994 31.9904 32.1946 24.0049 40.18V39.6852C22.6077 41.0824 21.2105 42.4796 19.823 43.8671C19.6872 43.8089 19.6192 43.7798 19.5319 43.741C18.125 45.1576 16.7084 46.5742 15.2918 47.9811H14.0498C15.6605 46.3704 17.2906 44.7403 18.9206 43.1103C18.9012 43.0812 18.8818 43.0617 18.8624 43.0326C18.8139 42.9647 18.7654 42.8968 18.7072 42.8192C20.4925 41.0339 22.2681 39.2582 24.0437 37.4923V36.8713C32.0583 28.8568 40.034 20.881 48.0195 12.8956C48.0195 13.0605 48.0389 13.2255 48.0389 13.3322C50.1832 11.1879 52.3567 9.01445 54.5301 6.84101C54.5495 6.86042 54.5786 6.87982 54.598 6.89923L54.6174 6.90893Z" fill="#0936D8"/>
<path id="Vector_4" d="M16.184 40.3647C16.1451 40.3065 16.0966 40.2386 16.0578 40.1804C18.7649 37.483 21.4623 34.7856 24.1306 32.1076C24.15 31.8359 24.1597 31.6128 24.1694 31.4284C32.1451 23.4527 40.1015 15.4963 48.0675 7.53029V7.97662C49.3289 6.71525 50.6097 5.43447 51.9002 4.144C51.8613 4.10518 51.774 4.00816 51.7061 3.93053C52.9481 2.68857 54.19 1.4466 55.4999 0.136719H58.6533C56.9068 1.88323 55.1021 3.68796 53.2877 5.50239C53.3071 5.5315 53.3265 5.56061 53.3459 5.59942C53.2391 5.49269 53.1227 5.39566 53.0354 5.31804C51.3956 6.95782 49.7558 8.5976 48.0675 10.2859V10.8487C40.0724 18.8438 32.1063 26.8099 24.1209 34.7953V34.2713C21.7922 36.6 19.4829 38.9093 17.1639 41.2283C17.1348 41.2089 17.1057 41.1895 17.0766 41.1798C17.0184 41.1507 16.9505 41.1119 16.8729 41.073C14.5636 43.3823 12.2543 45.6916 9.95473 47.9912H8.69336C11.2064 45.4781 13.7194 42.9651 16.2422 40.4424C16.2228 40.4132 16.2034 40.3841 16.1743 40.355L16.184 40.3647Z" fill="#0936D8"/>
<path id="Vector_5" d="M24.1988 29.3701V28.7783C20.9289 32.0481 17.6785 35.2986 14.4377 38.5393C14.3407 38.4811 14.2825 38.4423 14.2145 38.3938C11.0126 41.5957 7.81065 44.7977 4.61842 47.9899H3.29883C6.71423 44.5745 10.1296 41.1591 13.545 37.7437C13.4674 37.6273 13.4189 37.569 13.3898 37.5108C17.0187 33.882 20.6378 30.2628 24.2279 26.6728C24.2473 26.4108 24.257 26.207 24.2667 26.0421C32.2327 18.076 40.1697 10.1391 48.126 2.18276V2.59028C48.4947 2.21187 48.8634 1.84316 49.2515 1.45504C49.2224 1.42594 49.1448 1.33861 49.0866 1.27069C49.4068 0.950495 49.727 0.630302 50.1248 0.242188H53.2879C52.4438 1.08634 51.5511 1.979 50.639 2.88136C50.5905 2.81344 50.4935 2.69701 50.4062 2.59028C49.6493 3.3471 48.9216 4.09422 48.126 4.88985V5.43321C40.1308 13.4284 32.1745 21.3847 24.1988 29.3604V29.3701Z" fill="#0936D8"/>
<path id="Vector_6" d="M32.1452 47.9898H28.9336C35.2404 41.6829 41.5764 35.347 47.8833 29.0401V29.9619C49.8141 28.031 51.7547 26.0905 53.6856 24.1596C53.6856 24.1596 53.5982 24.1402 53.5206 24.1208C56.5479 21.0935 59.5655 18.0759 62.6025 15.0389C62.4569 14.874 62.3405 14.7478 62.2532 14.6508C65.3581 11.5459 68.463 8.44098 71.5485 5.35547V8.61563C68.987 11.1772 66.4254 13.7387 63.8639 16.3003C63.7862 16.2324 63.6989 16.1547 63.6019 16.0674C60.9045 18.7648 58.2168 21.4525 55.5388 24.1305C55.4127 24.1402 55.3156 24.1499 55.2477 24.1596C52.7929 26.6144 50.3478 29.0595 47.8833 31.5241V32.2615C42.6243 37.5204 37.4042 42.7406 32.1549 47.9898H32.1452Z" fill="#0936D8"/>
<path id="Vector_7" d="M59.0516 24.1605C59.0516 24.1605 58.9643 24.1411 58.8769 24.1217C61.0116 21.9871 63.1268 19.8719 65.2614 17.7373C65.1062 17.5626 64.98 17.4365 64.883 17.32C67.1147 15.0884 69.3366 12.8664 71.5683 10.6348V13.924C69.8897 15.5929 68.2208 17.2715 66.5228 18.9598C66.4452 18.9016 66.3578 18.8337 66.2802 18.7755C64.4852 20.5705 62.6902 22.3655 60.9339 24.1217C60.7593 24.1411 60.6623 24.1508 60.5943 24.1508C56.3348 28.4104 52.1043 32.6408 47.8448 36.9004V37.599C44.3712 41.0726 40.9267 44.5171 37.453 47.9907H34.2705C38.7823 43.4789 43.3233 38.938 47.8351 34.4262V35.377C51.5804 31.6317 55.3257 27.8864 59.0516 24.1605Z" fill="#0936D8"/>
<path id="Vector_8" d="M23.8788 5.25875V5.86033C25.7611 3.96827 27.6241 2.10532 29.4579 0.271484H30.7775C28.4779 2.57106 26.1492 4.89974 23.8788 7.17021V8.45099C18.6489 13.6808 13.4482 18.8815 8.20867 24.1211H7.38393C6.15167 25.3534 4.93881 26.5759 3.71625 27.7985C3.63863 27.75 3.58041 27.7111 3.50279 27.6626C2.34815 28.8173 1.20322 29.9719 0.00976562 31.1557V29.807C0.941239 28.8755 1.88242 27.9343 2.8333 26.9931C2.77508 26.9058 2.72656 26.8476 2.65864 26.7409C3.51249 25.887 4.38575 25.0235 5.25901 24.1405C5.15228 24.1308 5.05525 24.1211 5.01644 24.1114C11.2942 17.8336 17.5913 11.5365 23.8885 5.23934L23.8788 5.25875Z" fill="#0936D8"/>
<path id="Vector_9" d="M34.7653 0.281187H36.1625C32.0582 4.38549 27.9442 8.4995 23.8787 12.565V13.7681C20.4245 17.2224 16.9897 20.6572 13.5161 24.1308H12.7787C10.644 26.2654 8.53851 28.3806 6.41358 30.4959C6.31656 30.4376 6.24864 30.3988 6.1225 30.3309C4.0849 32.3685 2.0473 34.4158 0 36.4631V35.1629C1.82414 33.3388 3.65797 31.505 5.49181 29.6711C5.4433 29.5935 5.39478 29.5353 5.32686 29.4383C7.07338 27.6917 8.82959 25.9355 10.6052 24.1599C10.4694 24.1405 10.3626 24.1308 10.285 24.1211C14.8066 19.5996 19.3281 15.078 23.8593 10.5468V11.1775C27.527 7.50981 31.1753 3.86154 34.7653 0.271484V0.281187Z" fill="#0936D8"/>
<path id="Vector_10" d="M23.8788 17.9405V19.1048C22.1905 20.7931 20.5313 22.4523 18.843 24.1406H18.0862C15.0686 27.1582 12.0704 30.1564 9.06252 33.1643C8.9849 33.1158 8.92669 33.0769 8.85877 33.0381C5.9091 35.9781 2.97884 38.9181 0.00976562 41.8871V40.5093C2.71686 37.8022 5.43366 35.0854 8.16016 32.3589C8.11165 32.2813 8.07283 32.2231 8.02432 32.1455C10.6635 29.5063 13.3027 26.8671 15.9904 24.1794C15.806 24.16 15.6799 24.1406 15.5828 24.1309C18.3384 21.3753 21.0941 18.6197 23.8691 15.8447V16.5336C29.3027 11.0903 34.7363 5.66639 40.1116 0.291016H41.5283C35.6386 6.18065 29.749 12.0703 23.8788 17.9405Z" fill="#0936D8"/>
<path id="Vector_11" d="M21.3463 24.16C21.1522 24.1406 21.0164 24.1309 20.9096 24.1309C21.8993 23.1509 22.8793 22.1709 23.869 21.191V21.8799C31.0879 14.6609 38.3069 7.44202 45.4579 0.291016H46.8648C39.1995 7.95627 31.5246 15.6312 23.8787 23.2771V24.1309C23.7235 24.1406 23.5779 24.16 23.4421 24.1697C19.5415 28.0703 15.6507 31.9611 11.7502 35.8617C11.6531 35.8034 11.5949 35.7646 11.4979 35.7064C7.67495 39.5293 3.85203 43.3523 0 47.1946V45.8459C3.59005 42.2558 7.20922 38.6367 10.8381 35.0175C10.7896 34.9496 10.7508 34.8914 10.6925 34.8041C14.2244 31.2722 17.7562 27.7404 21.3366 24.16H21.3463Z" fill="#0936D8"/>
<path id="Vector_12" d="M2.90121 24.1503H2.00855C1.68836 24.4802 1.36816 24.8198 1.04797 25.1594C0.960645 25.1011 0.902428 25.0623 0.805399 25.0041C0.562828 25.2758 0.310554 25.5475 0.0679827 25.8192C0.048577 25.8094 0.0291713 25.7997 0.00976562 25.79V24.4802C0.00976562 24.4802 0.0679827 24.3928 0.1262 24.3152C0.0873884 24.257 0.048577 24.1988 0.0291713 24.1697C7.9661 16.2133 15.903 8.2764 23.8594 0.320061C23.8691 0.378279 23.8885 0.446198 23.8982 0.533524C24.0049 0.436496 24.0922 0.358873 24.1796 0.28125H25.4895C24.9364 0.82461 24.393 1.34856 23.8788 1.85311V3.163C16.883 10.1588 9.90667 17.1351 2.90121 24.1406V24.1503Z" fill="#0936D8"/>
<path id="Vector_13" d="M47.7768 42.3236V43.0125C46.108 44.6814 44.4585 46.3309 42.7993 47.9901H39.5488C42.285 45.2539 45.0406 42.4983 47.7865 39.7524V40.8003C53.3366 35.2503 58.8769 29.7099 64.4075 24.1793C64.3784 24.1793 64.2911 24.1502 64.2135 24.1308C65.436 22.9082 66.6586 21.6954 67.8909 20.4534C67.7259 20.2691 67.5998 20.1332 67.493 20.0168C68.8514 18.6584 70.2001 17.3097 71.5391 15.9707V19.2406C70.7338 20.0459 69.9285 20.8512 69.1134 21.6566C69.0455 21.5984 68.9679 21.5304 68.8902 21.4625C67.9879 22.3649 67.0952 23.2575 66.222 24.1308C66.0764 24.1502 65.9794 24.1599 65.9115 24.1599C59.8569 30.2145 53.8217 36.2497 47.7477 42.3236H47.7768Z" fill="#0936D8"/>
<path id="Vector_14" d="M71.5685 21.25V24.1123C71.4714 24.1317 71.3744 24.1414 71.3162 24.1512C63.4569 32.0105 55.6073 39.8601 47.7383 47.7291C47.7383 47.7776 47.7286 47.8746 47.7188 47.9814H44.8662C45.8171 47.0208 46.7874 46.0602 47.748 45.0996V46.1669C55.0833 38.8316 62.4187 31.4962 69.754 24.1609C69.7346 24.1609 69.657 24.1317 69.5309 24.1026C69.8899 23.7727 70.2295 23.4623 70.5788 23.1421C70.3944 22.948 70.2586 22.8025 70.1421 22.686C70.6273 22.2009 71.093 21.7351 71.5685 21.25Z" fill="#0936D8"/>
</g>
<g id="Group_2">
<path id="Vector_15" d="M100.278 6.49219V11.7026H93.7485V22.7056H86.6266V11.7026H80.0771V6.49219H100.278Z" fill="#0936D8"/>
<path id="Vector_16" d="M114.988 36.6088C117.85 36.6088 120.169 34.2898 120.169 31.4372C120.169 30.0109 119.587 28.7107 118.655 27.7695C117.714 26.838 116.414 26.2559 114.988 26.2559H99.9678V42.4887H107.09V36.6088L113.038 42.4887H120.15L114.212 36.6088H114.978H114.988ZM107.09 30.0594H111.66C112.417 30.0594 113.038 30.6804 113.038 31.4372C113.038 32.194 112.417 32.7956 111.66 32.7956H107.09V30.0594Z" fill="#0936D8"/>
<path id="Vector_17" d="M129.038 30.0594V32.4754H140.099V36.2789H129.038V38.6852H142.117V42.4887H121.916V26.2559H142.117V30.0594H129.038Z" fill="#0936D8"/>
<path id="Vector_18" d="M112.863 6.49219H108.73C104.247 6.49219 100.618 10.1211 100.618 14.6038C100.618 19.0865 104.247 22.7154 108.73 22.7154H112.863C117.346 22.7154 120.975 19.0865 120.975 14.6038C120.975 10.1211 117.346 6.49219 112.863 6.49219ZM111.611 17.8057H109.981C108.215 17.8057 106.779 16.3697 106.779 14.6038C106.779 12.8379 108.215 11.4018 109.981 11.4018H111.611C113.377 11.4018 114.813 12.8379 114.813 14.6038C114.813 16.3697 113.377 17.8057 111.611 17.8057Z" fill="#0936D8"/>
<path id="Vector_19" d="M121.916 6.48242V22.7153H129.038V16.8354H136.926C139.779 16.8354 142.098 14.5164 142.098 11.6637C142.098 8.81111 139.779 6.49212 136.926 6.49212H121.916V6.48242ZM133.618 13.0318H129.048V10.2956H133.618C134.374 10.2956 134.986 10.9069 134.986 11.6637C134.986 12.4206 134.374 13.0318 133.618 13.0318Z" fill="#0936D8"/>
<path id="Vector_20" d="M97.0959 38.6855H80.0771V42.4891H97.0959V38.6855Z" fill="#0936D8"/>
<g id="Group_3">
<path id="Vector_21" d="M147.26 8.51958C147.26 9.67422 146.319 10.6154 145.154 10.6154C144 10.6154 143.059 9.67422 143.059 8.50988C143.059 7.35524 144 6.41406 145.164 6.41406C146.319 6.41406 147.26 7.35524 147.26 8.50988V8.51958ZM143.641 8.50988C143.641 9.32492 144.291 10.0235 145.154 10.0332C145.96 10.0332 146.678 9.39284 146.678 8.51958C146.678 7.70454 146.028 7.00594 145.164 6.99623C144.349 6.99623 143.65 7.63662 143.641 8.50988Z" fill="#0936D8"/>
<path id="Vector_22" d="M144.446 9.47006V7.55859C144.446 7.55859 144.466 7.55859 144.475 7.55859C144.718 7.55859 144.97 7.55859 145.213 7.55859C145.349 7.55859 145.484 7.5877 145.601 7.65562C145.766 7.74295 145.863 7.87879 145.902 8.05344C145.95 8.2572 145.931 8.45126 145.814 8.62591C145.776 8.68412 145.717 8.73264 145.669 8.78115C145.659 8.79086 145.64 8.80056 145.62 8.81026C145.776 9.02372 145.931 9.23719 146.096 9.46035H145.979C145.863 9.46035 145.746 9.46035 145.64 9.46035C145.611 9.46035 145.591 9.46035 145.572 9.43124C145.455 9.276 145.339 9.11105 145.223 8.9558C145.223 8.9461 145.203 8.9267 145.193 8.9267C145.077 8.9267 144.97 8.9267 144.854 8.9267V9.46035H144.446V9.47006ZM144.854 8.53858C144.999 8.53858 145.135 8.53858 145.281 8.51918C145.378 8.51918 145.465 8.47066 145.494 8.37363C145.514 8.32512 145.514 8.2572 145.514 8.19898C145.514 8.11166 145.465 8.04374 145.387 8.00492C145.349 7.98552 145.31 7.97582 145.271 7.96611C145.135 7.96611 144.999 7.96611 144.854 7.96611V8.52888V8.53858Z" fill="#0936D8"/>
</g>
</g>
</g>
<defs>
<clipPath id="clip0_2195_42181">
<rect width="147.26" height="48" fill="white"/>
</clipPath>
</defs>
</svg>
