<svg width="208" height="48" viewBox="0 0 208 48" fill="none" xmlns="http://www.w3.org/2000/svg">
<g id="_&#229;&#156;&#150;&#229;&#177;&#164;_2" clip-path="url(#clip0_2209_50994)">
<g id="Group">
<path id="Vector" d="M24.0504 45.6229V45.1377C23.5817 45.6229 23.1227 46.0983 22.6638 46.5737C22.6345 46.5543 22.6052 46.5349 22.5759 46.5155C22.5076 46.4864 22.4392 46.467 22.3709 46.4379C21.8533 46.9619 21.3358 47.4761 20.828 47.9904H19.5195C20.2519 47.2626 20.994 46.5252 21.7459 45.7878C21.7264 45.7684 21.7068 45.7393 21.6873 45.7199C21.6385 45.652 21.5799 45.5841 21.5311 45.5258C22.3904 44.672 23.2497 43.8278 24.0895 42.9837V42.3336C32.1845 34.2899 40.2405 26.2851 48.2964 18.2802V18.7557C51.3724 15.6993 54.4678 12.6235 57.5633 9.54767C57.5144 9.49915 57.4168 9.39242 57.3484 9.3148C60.4536 6.22929 63.5491 3.15349 66.7129 0.00976562H69.8669C66.2539 3.59982 62.5921 7.23839 58.9206 10.8867L58.9694 10.9546C58.8717 10.8673 58.7741 10.7702 58.696 10.7023C55.2392 14.1371 51.7825 17.5816 48.2672 21.0649V21.5501C40.1721 29.5938 32.1259 37.5889 24.0406 45.6229H24.0504Z" fill="#0936D8"/>
<path id="Vector_2" d="M61.616 13.6134C61.5379 13.5358 61.45 13.4582 61.3817 13.3902C57.7589 16.99 54.1459 20.5801 50.533 24.1701L50.4841 24.1313C50.3865 24.1313 50.2888 24.141 50.2205 24.1507C49.5662 24.8008 48.9218 25.4412 48.2382 26.1301V26.9257C41.149 33.97 34.0988 40.9754 27.0388 47.9906H24.041V47.7092C32.1263 39.6753 40.1823 31.6704 48.2578 23.6462V24.6261C48.414 24.4515 48.5409 24.306 48.6679 24.1604C48.6484 24.1604 48.5702 24.1313 48.4726 24.1022C52.4273 20.1725 56.3626 16.2623 60.3271 12.3229C60.2001 12.1871 60.1025 12.061 60.0244 11.9736C64.0377 7.98576 68.0413 4.00759 72.0253 0.0488281V3.27017C68.5588 6.71469 65.1021 10.1495 61.6258 13.6037L61.616 13.6134Z" fill="#0936D8"/>
<path id="Vector_3" d="M54.9663 6.90893C54.8687 6.8022 54.771 6.69547 54.6929 6.61785C56.8607 4.46381 59.0285 2.30978 61.2744 0.078125H64.5163C61.8017 2.77552 59.0578 5.50202 56.3041 8.23822C56.226 8.1703 56.1186 8.07327 56.0209 7.98595C53.4723 10.5184 50.9237 13.0508 48.3263 15.6318V16.1655C40.241 24.1994 32.1948 32.1946 24.1583 40.18V39.6852C22.7522 41.0824 21.3461 42.4796 19.9497 43.8671C19.813 43.8089 19.7447 43.7798 19.6568 43.741C18.2409 45.1576 16.8152 46.5742 15.3895 47.9811H14.1396C15.7606 46.3704 17.4011 44.7403 19.0416 43.1103C19.0221 43.0812 19.0025 43.0617 18.983 43.0326C18.9342 42.9647 18.8854 42.8968 18.8268 42.8192C20.6235 41.0339 22.4104 39.2582 24.1974 37.4923V36.8713C32.2631 28.8568 40.2898 20.881 48.3263 12.8956C48.3263 13.0605 48.3458 13.2255 48.3458 13.3322C50.5038 11.1879 52.6911 9.01445 54.8785 6.84101C54.898 6.86042 54.9273 6.87982 54.9468 6.89923L54.9663 6.90893Z" fill="#0936D8"/>
<path id="Vector_4" d="M16.2875 40.3647C16.2484 40.3065 16.1996 40.2386 16.1605 40.1804C18.8849 37.483 21.5995 34.7856 24.2848 32.1076C24.3044 31.8359 24.3141 31.6128 24.3239 31.4284C32.3506 23.4527 40.3577 15.4963 48.3746 7.53029V7.97662C49.6441 6.71525 50.933 5.43447 52.2318 4.144C52.1927 4.10518 52.1048 4.00816 52.0365 3.93053C53.2864 2.68857 54.5362 1.4466 55.8545 0.136719H59.0281C57.2704 1.88323 55.4541 3.68796 53.6281 5.50239C53.6476 5.5315 53.6672 5.56061 53.6867 5.59942C53.5793 5.49269 53.4621 5.39566 53.3742 5.31804C51.724 6.95782 50.0737 8.5976 48.3746 10.2859V10.8487C40.3284 18.8438 32.3115 26.8099 24.2751 34.7953V34.2713C21.9315 36.6 19.6075 38.9093 17.2737 41.2283C17.2444 41.2089 17.2151 41.1895 17.1858 41.1798C17.1272 41.1507 17.0589 41.1119 16.9808 41.073C14.6567 43.3823 12.3327 45.6916 10.0184 47.9912H8.74902C11.2781 45.4781 13.8072 42.9651 16.3461 40.4424C16.3265 40.4132 16.307 40.3841 16.2777 40.355L16.2875 40.3647Z" fill="#0936D8"/>
<path id="Vector_5" d="M24.3537 29.3701V28.7783C21.063 32.0481 17.7918 35.2986 14.5303 38.5393C14.4327 38.4811 14.3741 38.4423 14.3057 38.3938C11.0833 41.5957 7.86095 44.7977 4.64833 47.9899H3.32031C6.75753 44.5745 10.1947 41.1591 13.632 37.7437C13.5538 37.6273 13.505 37.569 13.4757 37.5108C17.1278 33.882 20.77 30.2628 24.383 26.6728C24.4025 26.4108 24.4123 26.207 24.4221 26.0421C32.439 18.076 40.4266 10.1391 48.4338 2.18276V2.59028C48.8048 2.21187 49.1759 1.84316 49.5665 1.45504C49.5372 1.42594 49.4591 1.33861 49.4005 1.27069C49.7227 0.950495 50.045 0.630302 50.4453 0.242188H53.6286C52.7791 1.08634 51.8807 1.979 50.9628 2.88136C50.914 2.81344 50.8164 2.69701 50.7285 2.59028C49.9668 3.3471 49.2345 4.09422 48.4338 4.88985V5.43321C40.3876 13.4284 32.3804 21.3847 24.3537 29.3604V29.3701Z" fill="#0936D8"/>
<path id="Vector_6" d="M32.3513 47.9898H29.1191C35.4663 41.6829 41.8427 35.347 48.1898 29.0401V29.9619C50.133 28.031 52.086 26.0905 54.0292 24.1596C54.0292 24.1596 53.9413 24.1402 53.8632 24.1208C56.9098 21.0935 59.9467 18.0759 63.0031 15.0389C62.8566 14.874 62.7394 14.7478 62.6515 14.6508C65.7763 11.5459 68.901 8.44098 72.0062 5.35547V8.61563C69.4283 11.1772 66.8504 13.7387 64.2725 16.3003C64.1944 16.2324 64.1065 16.1547 64.0088 16.0674C61.2942 18.7648 58.5894 21.4525 55.8943 24.1305C55.7673 24.1402 55.6697 24.1499 55.6013 24.1596C53.1308 26.6144 50.6701 29.0595 48.1898 31.5241V32.2615C42.8973 37.5204 37.6438 42.7406 32.3611 47.9898H32.3513Z" fill="#0936D8"/>
<path id="Vector_7" d="M59.4286 24.1605C59.4286 24.1605 59.3407 24.1411 59.2528 24.1217C61.4011 21.9871 63.5298 19.8719 65.6781 17.7373C65.5218 17.5626 65.3949 17.4365 65.2973 17.32C67.5432 15.0884 69.7793 12.8664 72.0252 10.6348V13.924C70.3359 15.5929 68.6563 17.2715 66.9475 18.9598C66.8694 18.9016 66.7815 18.8337 66.7034 18.7755C64.8969 20.5705 63.0904 22.3655 61.323 24.1217C61.1472 24.1411 61.0496 24.1508 60.9812 24.1508C56.6945 28.4104 52.437 32.6408 48.1502 36.9004V37.599C44.6544 41.0726 41.1879 44.5171 37.6921 47.9907H34.4893C39.0299 43.4789 43.5998 38.938 48.1405 34.4262V35.377C51.9097 31.6317 55.6789 27.8864 59.4286 24.1605Z" fill="#0936D8"/>
<path id="Vector_8" d="M24.0312 5.25875V5.86033C25.9256 3.96827 27.8004 2.10532 29.646 0.271484H30.974C28.6597 2.57106 26.3162 4.89974 24.0312 7.17021V8.45099C18.768 13.6808 13.534 18.8815 8.26103 24.1211H7.43103C6.19089 25.3534 4.97029 26.5759 3.73993 27.7985C3.66181 27.75 3.60322 27.7111 3.5251 27.6626C2.36309 28.8173 1.21084 29.9719 0.00976562 31.1557V29.807C0.947188 28.8755 1.89438 27.9343 2.85133 26.9931C2.79274 26.9058 2.74391 26.8476 2.67556 26.7409C3.53486 25.887 4.4137 25.0235 5.29253 24.1405C5.18512 24.1308 5.08747 24.1211 5.04841 24.1114C11.3662 17.8336 17.7036 11.5365 24.041 5.23934L24.0312 5.25875Z" fill="#0936D8"/>
<path id="Vector_9" d="M34.9873 0.281187H36.3935C32.263 4.38549 28.1227 8.4995 24.0312 12.565V13.7681C20.5549 17.2224 17.0982 20.6572 13.6024 24.1308H12.8603C10.712 26.2654 8.59304 28.3806 6.45454 30.4959C6.3569 30.4376 6.28854 30.3988 6.1616 30.3309C4.11099 32.3685 2.06038 34.4158 0 36.4631V35.1629C1.83579 33.3388 3.68134 31.505 5.52689 29.6711C5.47806 29.5935 5.42924 29.5353 5.36088 29.4383C7.11855 27.6917 8.88598 25.9355 10.6729 24.1599C10.5362 24.1405 10.4288 24.1308 10.3507 24.1211C14.9011 19.5996 19.4515 15.078 24.0117 10.5468V11.1775C27.7028 7.50981 31.3744 3.86154 34.9873 0.271484V0.281187Z" fill="#0936D8"/>
<path id="Vector_10" d="M24.0312 17.9405V19.1048C22.3321 20.7931 20.6624 22.4523 18.9633 24.1406H18.2016C15.1648 27.1582 12.1474 30.1564 9.12034 33.1643C9.04222 33.1158 8.98363 33.0769 8.91528 33.0381C5.94677 35.9781 2.9978 38.9181 0.00976562 41.8871V40.5093C2.73415 37.8022 5.4683 35.0854 8.21221 32.3589C8.16339 32.2813 8.12433 32.2231 8.07551 32.1455C10.7315 29.5063 13.3876 26.8671 16.0924 24.1794C15.9069 24.16 15.7799 24.1406 15.6823 24.1309C18.4555 21.3753 21.2287 18.6197 24.0215 15.8447V16.5336C29.4897 11.0903 34.958 5.66639 40.3678 0.291016H41.7934C35.8662 6.18065 29.9389 12.0703 24.0312 17.9405Z" fill="#0936D8"/>
<path id="Vector_11" d="M21.4826 24.16C21.2873 24.1406 21.1506 24.1309 21.0432 24.1309C22.0392 23.1509 23.0254 22.1709 24.0215 21.191V21.8799C31.2865 14.6609 38.5515 7.44202 45.7482 0.291016H47.1641C39.4499 7.95627 31.7259 15.6312 24.0312 23.2771V24.1309C23.875 24.1406 23.7285 24.16 23.5918 24.1697C19.6663 28.0703 15.7507 31.9611 11.8252 35.8617C11.7275 35.8034 11.669 35.7646 11.5713 35.7064C7.72397 39.5293 3.87663 43.3523 0 47.1946V45.8459C3.61298 42.2558 7.25526 38.6367 10.9073 35.0175C10.8585 34.9496 10.8194 34.8914 10.7608 34.8041C14.3152 31.2722 17.8696 27.7404 21.4728 24.16H21.4826Z" fill="#0936D8"/>
<path id="Vector_12" d="M2.91968 24.1503H2.02132C1.69908 24.4802 1.37684 24.8198 1.0546 25.1594C0.966718 25.1011 0.908129 25.0623 0.810481 25.0041C0.56636 25.2758 0.312475 25.5475 0.0683545 25.8192C0.0488249 25.8094 0.0292953 25.7997 0.00976562 25.79V24.4802C0.00976562 24.4802 0.0683545 24.3928 0.126943 24.3152C0.0878842 24.257 0.0488249 24.1988 0.0292953 24.1697C8.01692 16.2133 16.0045 8.2764 24.0117 0.320061C24.0215 0.378279 24.041 0.446198 24.0507 0.533524C24.1582 0.436496 24.246 0.358873 24.3339 0.28125H25.6522C25.0956 0.82461 24.5487 1.34856 24.0312 1.85311V3.163C16.9908 10.1588 9.96988 17.1351 2.91968 24.1406V24.1503Z" fill="#0936D8"/>
<path id="Vector_13" d="M48.0823 42.3236V43.0125C46.4028 44.6814 44.7428 46.3309 43.073 47.9901H39.8018C42.5554 45.2539 45.3286 42.4983 48.0921 39.7524V40.8003C53.6776 35.2503 59.2533 29.7099 64.8192 24.1793C64.7899 24.1793 64.702 24.1502 64.6239 24.1308C65.8543 22.9082 67.0847 21.6954 68.3248 20.4534C68.1588 20.2691 68.0318 20.1332 67.9244 20.0168C69.2915 18.6584 70.6488 17.3097 71.9964 15.9707V19.2406C71.1859 20.0459 70.3754 20.8512 69.5552 21.6566C69.4868 21.5984 69.4087 21.5304 69.3306 21.4625C68.4224 22.3649 67.5241 23.2575 66.6452 24.1308C66.4988 24.1502 66.4011 24.1599 66.3328 24.1599C60.2395 30.2145 54.1658 36.2497 48.053 42.3236H48.0823Z" fill="#0936D8"/>
<path id="Vector_14" d="M72.0251 21.25V24.1123C71.9275 24.1317 71.8298 24.1414 71.7712 24.1512C63.8617 32.0105 55.962 39.8601 48.0427 47.7291C48.0427 47.7776 48.033 47.8746 48.0232 47.9814H45.1523C46.1093 47.0208 47.0858 46.0602 48.0525 45.0996V46.1669C55.4347 38.8316 62.8169 31.4962 70.1991 24.1609C70.1796 24.1609 70.1015 24.1317 69.9745 24.1026C70.3358 23.7727 70.6776 23.4623 71.0291 23.1421C70.8436 22.948 70.7069 22.8025 70.5897 22.686C71.0779 22.2009 71.5466 21.7351 72.0251 21.25Z" fill="#0936D8"/>
</g>
<g id="Group_2">
<g id="Group_3">
<path id="Vector_15" d="M104.425 8.34375V13.7191H97.6287V25.1006H90.2172V13.7191H83.4111V8.34375H104.425Z" fill="#0936D8"/>
<path id="Vector_16" d="M174.029 19.0265C177.007 19.0265 179.419 16.6299 179.419 13.69C179.419 12.2151 178.814 10.8761 177.847 9.89614C176.861 8.93556 175.513 8.33398 174.029 8.33398H158.405V25.1102H165.817V19.0265L172.008 25.1102H179.4L173.228 19.0265H174.029ZM165.817 12.2636H170.572C171.353 12.2636 172.008 12.904 172.008 13.69C172.008 14.4759 171.363 15.0969 170.572 15.0969H165.817V12.2636Z" fill="#0936D8"/>
<path id="Vector_17" d="M188.647 12.2636V14.7573H200.16V18.6966H188.647V21.1709H202.249V25.1102H181.245V8.33398H202.249V12.2636H188.647Z" fill="#0936D8"/>
<path id="Vector_18" d="M117.519 8.33398H113.223C108.565 8.33398 104.786 12.089 104.786 16.7172C104.786 21.3455 108.565 25.1005 113.223 25.1005H117.519C122.177 25.1005 125.956 21.3455 125.956 16.7172C125.956 12.089 122.177 8.33398 117.519 8.33398ZM116.221 20.0356H114.522C112.676 20.0356 111.182 18.5511 111.182 16.7172C111.182 14.8834 112.676 13.3989 114.522 13.3989H116.221C118.066 13.3989 119.56 14.8834 119.56 16.7172C119.56 18.5511 118.066 20.0356 116.221 20.0356Z" fill="#0936D8"/>
<path id="Vector_19" d="M126.942 8.33398V25.1102H134.354V19.0265H142.566C145.535 19.0265 147.946 16.6299 147.946 13.6803C147.946 10.7306 145.535 8.33398 142.566 8.33398H126.942ZM139.109 15.0969H134.354V12.2636H139.109C139.9 12.2636 140.535 12.8943 140.535 13.6803C140.535 14.4662 139.9 15.0969 139.109 15.0969Z" fill="#0936D8"/>
<path id="Vector_20" d="M156.569 14.7578H149.167V18.6875H156.569V14.7578Z" fill="#0936D8"/>
<g id="Group_4">
<path id="Vector_21" d="M207.6 10.5074C207.6 11.7009 206.614 12.6712 205.413 12.6712C204.212 12.6712 203.235 11.6912 203.235 10.4977C203.235 9.30427 204.222 8.33398 205.423 8.33398C206.624 8.33398 207.6 9.31397 207.6 10.5074ZM203.841 10.4977C203.841 11.3322 204.515 12.0599 205.413 12.0696C206.253 12.0696 206.995 11.4001 206.995 10.5074C206.995 9.67298 206.321 8.94526 205.423 8.93556C204.583 8.93556 203.841 9.60506 203.841 10.4977Z" fill="#0936D8"/>
<path id="Vector_22" d="M204.671 11.4872V9.50781C204.671 9.50781 204.69 9.50781 204.7 9.50781C204.954 9.50781 205.208 9.50781 205.472 9.50781C205.618 9.50781 205.755 9.54662 205.882 9.61454C206.048 9.70187 206.155 9.84741 206.204 10.0318C206.253 10.2452 206.233 10.4393 206.116 10.6236C206.077 10.6819 206.018 10.7304 205.96 10.7886C205.95 10.7983 205.931 10.808 205.911 10.8274C206.077 11.0506 206.233 11.2737 206.409 11.4969H206.282C206.165 11.4969 206.048 11.4969 205.921 11.4969C205.891 11.4969 205.872 11.4969 205.852 11.4678C205.735 11.3028 205.608 11.1379 205.491 10.9729C205.491 10.9632 205.472 10.9438 205.452 10.9438C205.335 10.9438 205.218 10.9438 205.091 10.9438V11.4969H204.671V11.4872ZM205.101 10.5266C205.247 10.5266 205.393 10.5266 205.54 10.5072C205.638 10.5072 205.725 10.4587 205.765 10.352C205.784 10.2937 205.784 10.2355 205.784 10.1773C205.784 10.0803 205.735 10.0124 205.647 9.97355C205.608 9.95414 205.569 9.93474 205.52 9.93474C205.374 9.93474 205.237 9.93474 205.091 9.93474V10.5169L205.101 10.5266Z" fill="#0936D8"/>
</g>
</g>
<g id="Group_5">
<path id="Vector_23" d="M88.5377 35.5016L88.8599 37.0929C87.8932 37.4227 87.3073 37.6265 87.1022 37.6944V41.4203C87.1022 42.1189 86.9558 42.575 86.6726 42.8078C86.6042 42.8563 86.5359 42.9049 86.4578 42.9437C86.0574 43.1668 85.3055 43.2736 84.2118 43.2736C84.163 42.8466 83.997 42.313 83.7236 41.6823C84.1142 41.692 84.5829 41.692 85.1102 41.692C85.2957 41.6726 85.3836 41.5853 85.3934 41.4203V38.2766C84.5048 38.5677 84.0068 38.7326 83.9091 38.7617L83.4209 37.1026C83.626 37.054 83.9677 36.957 84.4462 36.8115C84.8563 36.6853 85.1786 36.598 85.3934 36.5398V34.0947H83.5381V32.4743H85.3934V29.709H87.112V32.4743H88.6646V34.0947H87.112V35.9964C87.278 35.9479 87.5124 35.8606 87.8346 35.7539C88.1471 35.6374 88.3912 35.5598 88.5572 35.5113L88.5377 35.5016ZM97.2088 32.2996H92.8635C92.4534 33.726 92.0432 34.8806 91.6526 35.7442H96.7206V43.3027H95.002V42.5556H91.5648V43.3706H89.9047V38.752C89.5727 39.179 89.2212 39.5768 88.8501 39.9358C88.5279 39.4895 88.1471 39.0431 87.6979 38.5871C88.9868 37.4227 89.9926 35.6471 90.7347 33.2505C90.8324 32.9303 90.9203 32.6101 90.9984 32.2899H88.7232V30.6308H97.2088V32.2899V32.2996ZM95.002 40.9255V37.3742H91.5648V40.9255H95.002Z" fill="#0936D8"/>
<path id="Vector_24" d="M106.31 37.6263L105.461 38.8391C105.304 38.4413 105.041 37.8591 104.67 37.112V43.3509H103.088V37.995C102.668 39.2272 102.238 40.149 101.818 40.77C101.672 40.3625 101.418 39.8385 101.057 39.2078C101.76 38.2084 102.346 36.8209 102.814 35.0453C102.883 34.793 102.941 34.5408 102.99 34.2982H101.408V32.6972H103.088V29.6796H104.67V32.6972H106.095V34.2982H104.67V35.0744C105.168 35.773 105.714 36.6172 106.31 37.6166V37.6263ZM114.991 40.411H112.013C112.755 41.2357 113.8 41.7694 115.167 41.9925C114.757 42.3807 114.434 42.827 114.2 43.3218C114.2 43.3509 114.181 43.3703 114.171 43.3898C112.56 42.9725 111.368 42.1381 110.616 40.9058C109.923 41.9828 108.654 42.8173 106.818 43.4092C106.593 43.021 106.252 42.6038 105.783 42.1769C107.384 41.7597 108.478 41.1678 109.064 40.4013H106.086V39.0429H109.601L109.64 38.4704V38.4219H107.003V37.1314H109.64V36.5784H106.613V35.2588H108.136C108.058 34.9095 107.912 34.4922 107.706 33.9974L108.488 33.7839H106.3V32.377H107.179C107.052 31.824 106.759 31.1933 106.3 30.4753L107.511 29.961C108.009 30.679 108.331 31.2903 108.458 31.8045L107.238 32.377H108.605V29.6699H110.07V32.377H110.821V29.6699H112.306V32.377H114.786V33.7839H113.116L113.517 33.9004C113.292 34.2788 113.019 34.7348 112.696 35.2588H114.581V36.5784H111.28V37.1314H114.307V38.4219H111.28V38.4801C111.28 38.6159 111.28 38.8003 111.251 39.0332H114.991V40.3916V40.411ZM111.798 33.7936H109.152C109.415 34.3564 109.572 34.7833 109.64 35.0841L109.005 35.2685H111.593L111.232 35.1714C111.485 34.599 111.681 34.1429 111.788 33.8033L111.798 33.7936ZM113.302 29.9804L114.757 30.5335C114.093 31.5911 113.722 32.183 113.634 32.2897L112.472 31.7851C112.892 31.0477 113.175 30.4461 113.311 29.9707L113.302 29.9804Z" fill="#0936D8"/>
<path id="Vector_25" d="M126.728 35.3273L127.812 34.4152C130.243 36.152 131.874 37.4813 132.723 38.3934L131.239 39.7227C130.419 38.7427 128.925 37.4231 126.738 35.7639V43.3418H124.804V36.1908C123.32 37.7627 121.758 38.9659 120.127 39.8003C119.814 39.2569 119.404 38.733 118.916 38.2284C120.849 37.3358 122.558 35.9774 124.052 34.1629C124.511 33.6002 124.912 33.0277 125.263 32.4552H119.385V30.6699H132.157V32.4552H127.577C127.353 32.8725 127.07 33.3285 126.728 33.8039V35.337V35.3273Z" fill="#0936D8"/>
<path id="Vector_26" d="M147.038 32.979H150.036C150.036 32.979 150.036 33.241 150.026 33.7456C149.929 38.0536 149.792 40.6831 149.626 41.634C149.538 42.0609 149.431 42.3714 149.304 42.546C149.05 42.905 148.698 43.1379 148.269 43.2446C148.22 43.2446 148.181 43.2641 148.142 43.2738C147.839 43.332 147.243 43.3514 146.325 43.332H146.316C146.277 42.7401 146.101 42.187 145.798 41.6631C146.335 41.7116 146.833 41.731 147.282 41.731C147.507 41.731 147.673 41.6437 147.79 41.4884C148.044 41.1779 148.21 39.577 148.298 36.6952C148.298 36.0742 148.327 35.3659 148.347 34.58H147.019C146.882 37.4035 146.433 39.5576 145.652 41.0421C145.154 42.0027 144.49 42.808 143.66 43.4581C143.406 43.0603 143.074 42.6722 142.634 42.3035C139.392 42.6334 137.439 42.8177 136.785 42.8759L136.58 41.4205C137.752 41.3332 138.748 41.2653 139.578 41.2168V40.3241H136.971V39.0918H139.578V38.5194H137.039V33.9978H139.578V33.4254H136.668V32.164H139.578V31.5721C138.64 31.64 137.81 31.6789 137.088 31.6886C137.019 31.2907 136.893 30.8832 136.697 30.4563C139.402 30.3107 141.521 30.0779 143.044 29.7383L143.826 31.0385C142.976 31.2034 142.097 31.3393 141.16 31.4363V32.1543H144.001V32.9596H145.378C145.378 32.2998 145.398 31.281 145.398 29.8935H147.077C147.077 31.281 147.077 32.3095 147.048 32.9596L147.038 32.979ZM138.406 35.1137V35.7638H139.558V35.1137H138.406ZM138.406 37.4423H139.558V36.7826H138.406V37.4423ZM141.15 40.3338V41.0809C141.824 41.0324 142.673 40.9645 143.718 40.8772C144.577 39.6934 145.085 37.976 145.271 35.7249C145.29 35.3659 145.31 34.9778 145.329 34.58H143.992V33.4351H141.15V34.0075H143.767V38.5291H141.15V39.1015H143.826V40.3338H141.15ZM141.15 35.754H142.302V35.104H141.15V35.754ZM142.302 36.7923H141.15V37.452H142.302V36.7923Z" fill="#0936D8"/>
<path id="Vector_27" d="M159.323 38.3251C159.059 38.7423 158.756 39.111 158.434 39.4409C158.053 39.0916 157.614 38.7908 157.135 38.5095C157.917 37.8303 158.493 36.9376 158.883 35.8315H157.135V36.8794C157.135 39.8582 156.579 42.0801 155.505 43.5452C155.241 43.2251 154.851 42.9049 154.323 42.575C154.245 42.5264 154.187 42.4876 154.138 42.4585C154.997 41.1972 155.427 39.3342 155.436 36.86V34.4149H157.282C157.135 34.1626 156.979 33.9103 156.803 33.6872C157.673 33.561 158.62 33.3864 159.626 33.1535C158.59 32.8915 157.829 32.7072 157.35 32.6004L158.112 32.0571H155.329V30.6793H160.241V29.709H161.979V30.6793H167.154V32.0571H164.762L165.074 32.222C164.586 32.5325 164.02 32.8236 163.395 33.0759C163.981 33.2505 164.713 33.4834 165.582 33.7939L164.85 34.4052H167.857V35.8218H158.874L160.416 36.1808C160.319 36.4525 160.211 36.7144 160.094 36.9473H161.735V35.977H163.453V36.9473H167.027V38.3057H163.453V39.2372H166.578V40.5665H163.453V41.6726H167.74V43.0892H157.389V41.6726H161.735V40.5665H158.639V39.2372H161.735V38.3057H159.313L159.323 38.3251ZM161.637 33.726C160.739 33.9976 159.87 34.2305 159.03 34.4149H163.766C162.877 34.1044 162.164 33.8812 161.637 33.726ZM161.657 32.581C162.106 32.4452 162.584 32.2705 163.082 32.0571H159.528C160.133 32.2026 160.846 32.3773 161.657 32.581Z" fill="#0936D8"/>
<path id="Vector_28" d="M180.58 35.7051L182.465 36.2388C181.879 37.5874 181.127 38.7421 180.2 39.6736C181.615 40.673 183.471 41.3619 185.746 41.7209C185.336 42.1478 184.965 42.6717 184.652 43.2927C184.633 43.3218 184.623 43.3509 184.613 43.38C182.221 42.924 180.287 42.0993 178.813 40.9058C177.28 42.0119 175.366 42.8464 173.071 43.4092C172.876 42.9725 172.534 42.4486 172.036 41.8373C172.007 41.8082 171.987 41.7791 171.968 41.7597C174.302 41.3036 176.157 40.605 177.524 39.6542C176.733 38.7324 176.059 37.6069 175.493 36.2776L177.163 35.7924C177.583 36.8306 178.149 37.733 178.862 38.4995C179.623 37.6942 180.2 36.7724 180.59 35.7148L180.58 35.7051ZM175.864 33.1824L177.68 33.9004C176.811 35.0356 175.649 36.0932 174.204 37.0732C173.989 37.2187 173.794 37.3546 173.598 37.471C173.11 36.9471 172.622 36.5007 172.134 36.1223C173.423 35.4819 174.507 34.6766 175.405 33.716C175.581 33.522 175.727 33.3473 175.864 33.1726V33.1824ZM180.239 34.0847L181.645 33.0659H172.329V31.3582H177.905V29.6699H179.702V31.3582H185.365V33.0659H181.733C183.471 34.2303 184.721 35.2394 185.492 36.0835L185.551 36.1417L183.979 37.3449C183.354 36.5395 182.104 35.4528 180.229 34.0847H180.239Z" fill="#0936D8"/>
<path id="Vector_29" d="M194.505 37.1317H202.659C202.659 37.1317 202.64 37.3742 202.6 37.8206C202.337 40.4791 201.995 42.0898 201.575 42.6623C201.536 42.7205 201.497 42.769 201.458 42.8078C201.136 43.1377 200.745 43.3221 200.267 43.3609C199.905 43.3997 199.29 43.4094 198.421 43.39C198.402 42.8757 198.245 42.3809 197.962 41.9152C198.382 41.954 198.87 41.9734 199.427 41.9734C199.681 41.9637 199.857 41.9055 199.974 41.789C200.306 41.4591 200.569 40.4112 200.755 38.655H199.485C198.802 40.4112 197.825 41.886 196.546 43.0892C196.39 43.2347 196.244 43.3609 196.097 43.4773C195.726 43.1086 195.287 42.769 194.789 42.4585C194.759 42.4391 194.74 42.4294 194.72 42.41C195.98 41.527 196.956 40.2948 197.64 38.7229C197.64 38.6938 197.659 38.6744 197.669 38.655H196.4C195.453 40.2269 194.183 41.5659 192.601 42.672C192.396 42.8078 192.201 42.934 192.015 43.0601C191.722 42.6817 191.322 42.2936 190.824 41.9055C190.785 41.8666 190.756 41.8375 190.726 41.8181C192.172 41.1001 193.373 40.091 194.339 38.7811C194.379 38.7326 194.408 38.6938 194.437 38.655H193.138C192.406 39.3536 191.654 39.9455 190.863 40.4306C190.443 39.9552 190.014 39.5574 189.594 39.2372C189.574 39.2178 189.555 39.2081 189.535 39.1984C190.971 38.4512 192.133 37.481 193.031 36.2778C193.031 36.2584 193.05 36.2487 193.06 36.239H191.762V30.3105H201.468V36.239H195.121C194.964 36.4913 194.759 36.792 194.505 37.1414V37.1317ZM193.5 31.7078V32.6101H199.691V31.7078H193.5ZM193.5 33.9297V34.8418H199.691V33.9297H193.5Z" fill="#0936D8"/>
</g>
</g>
</g>
<defs>
<clipPath id="clip0_2209_50994">
<rect width="207.6" height="48" fill="white"/>
</clipPath>
</defs>
</svg>
