<svg width="18" height="17" viewBox="0 0 18 17" fill="none" xmlns="http://www.w3.org/2000/svg">
<g id="Group">
<g id="Group_2">
<g id="Group_3">
<path id="Vector" d="M4.83317 5.89974C5.75365 5.89974 6.49984 5.15355 6.49984 4.23307C6.49984 3.3126 5.75365 2.56641 4.83317 2.56641C3.9127 2.56641 3.1665 3.3126 3.1665 4.23307C3.1665 5.15355 3.9127 5.89974 4.83317 5.89974Z" fill="#333333"/>
</g>
<g id="Group_4">
<path id="Vector_2" d="M15.6665 9.23307V2.42474C15.6665 1.12474 14.6082 0.0664062 13.3082 0.0664062C12.6832 0.0664062 12.0832 0.316406 11.6415 0.758073L10.5998 1.79974C10.4665 1.75807 10.3248 1.73307 10.1748 1.73307C9.8415 1.73307 9.53317 1.83307 9.27484 1.99974L11.5748 4.29974C11.7415 4.04141 11.8415 3.73307 11.8415 3.39974C11.8415 3.24974 11.8165 3.11641 11.7832 2.97474L12.8248 1.93307C12.9498 1.80807 13.1248 1.73307 13.3082 1.73307C13.6915 1.73307 13.9998 2.04141 13.9998 2.42474V9.23307H8.2915C8.0415 9.05807 7.8165 8.85807 7.60817 8.63307L6.4415 7.34141C6.28317 7.16641 6.08317 7.02474 5.8665 6.92474C5.60817 6.79974 5.32484 6.73307 5.03317 6.73307C3.99984 6.74141 3.1665 7.57474 3.1665 8.60807V9.23307H0.666504V15.8997H2.33317V16.7331H15.6665V15.8997H17.3332V9.23307H15.6665Z" fill="#333333"/>
</g>
</g>
</g>
</svg>
